<svg id="Layer_1" data-name="Layer 1" xmlns="http://www.w3.org/2000/svg" viewBox="0 0 1080 1080"><defs><style>.cls-1{fill:#e2e8f5;}.cls-2{fill:#6165ae;}</style></defs><circle class="cls-1" cx="540" cy="540" r="428.94"/><path class="cls-2" d="M540.15,280.08c87,.36,161.08,63.14,176,149.14,6.53,37.55-1.36,72.56-17.46,106.31-17.73,37.15-41,70.75-67,102.37-27,32.83-55.13,64.78-82.84,97.05-5.22,6.08-12.24,6.36-17.35.49C491,688.79,448.93,643.35,414.07,592.06c-18.47-27.17-35.19-55.38-44.88-87-17.41-56.85-5.48-108.74,29.75-155.29,29.77-39.35,70.36-61.31,119.12-68.08C525.36,280.69,532.78,280.6,540.15,280.08Zm-.08,322.86c79.13,0,143.8-64.29,143.83-142.94,0-80.53-64-145-144-145C460.36,315,396,379.49,396,459.14A143.8,143.8,0,0,0,540.07,602.94Z"/><path class="cls-2" d="M534.6,799.92c-39.22-.41-83.82-3.72-127.46-15.25-14.79-3.9-29.34-8.68-42.28-17.14a58.9,58.9,0,0,1-11.51-9.66c-7.2-8-7-17.24.15-25.3,8.51-9.63,19.9-14.73,31.51-19.19,24.48-9.38,50.12-13.66,75.9-17.76,9.6-1.53,14.72,1.66,20.32,8.47,12.14,14.74,25,28.93,37.69,43.17,11.66,13,30.57,12.92,42.31-.26,14.5-16.29,28.74-32.81,43.3-49,1.51-1.68,4.6-3.13,6.75-2.88,32.22,3.65,64.17,8.83,93.8,22.83a83.18,83.18,0,0,1,20.7,14.3c8.29,7.74,8,17.43.6,26-6.87,8-16,12.71-25.45,16.81-22.1,9.59-45.48,14.54-69.11,18.2C601.51,797.93,571,799.86,534.6,799.92Z"/><path class="cls-2" d="M590.46,543.45c0-11.09,0-21.51,0-31.93,0-7,.14-14.07-.12-21.09-.21-5.68-3.71-8.94-8.81-8.86s-8.29,3.46-8.34,9.24c-.12,15.32-.06,30.64-.07,46,0,2,0,3.9,0,6.27H506.79c0-1.86,0-3.76,0-5.67,0-15.15,0-30.29,0-45.43,0-6.72-3-10.25-8.32-10.38-5.64-.14-8.88,3.5-8.92,10.41-.1,14.78-.05,29.56-.06,44.34,0,2.14,0,4.28,0,7-6.66,0-12.95.48-19.12-.15-4.75-.49-6.91-4.47-6.93-9-.09-20.37-.27-40.74.15-61.1.25-12.17,7.66-20.6,18.32-24.5a191.39,191.39,0,0,1,37.87-9.75c23.6-3.44,47.06-.95,69.85,6.14a61.75,61.75,0,0,1,15.34,7.63c7.71,5.09,11.51,12.77,11.58,22q.18,29.19,0,58.4c0,7.37-3.32,10.39-10.66,10.45C601.05,543.48,596.2,543.45,590.46,543.45Z"/><path class="cls-2" d="M574.47,385.59c-.5,10.47-3,21.18-9.87,30.52-13.15,17.93-35.48,18.4-48.75.58-10.41-14-13-29.89-8.12-46.58,4.38-14.95,20.16-23.65,36.93-21.15C564.22,351.88,574.57,364.29,574.47,385.59Z"/></svg>