<svg id="Layer_1" data-name="Layer 1" xmlns="http://www.w3.org/2000/svg" viewBox="0 0 1080 1080"><defs><style>.cls-1{fill:#e2e8f5;}.cls-2{fill:#6165ae;}</style></defs><circle class="cls-1" cx="540" cy="540" r="428.94"/><path class="cls-2" d="M811.86,361.78c15.23-15.51,21.43-34.47,18.1-55.68-4-25.48-18.61-43.57-43.24-51.67-25.11-8.25-47.51-2-66.14,16.82-24,24.17-47.82,48.51-71.78,72.72-9.25,9.33-18.68,18.47-28.13,27.78a69.44,69.44,0,0,0-32.87-12.47c-35.76-4-72,22.53-71,61.75.49,17.4.15,34.84,0,52.25,0,2.09-.53,4.83-1.89,6.15-10.69,10.4-21.63,20.52-32.46,30.69v-5.07c0-28.52.28-57.05-.18-85.57a63.87,63.87,0,0,0-4-21.73c-12.57-32.66-52.89-48.12-86.26-33.41-20.74,9.14-33.77,24.63-36.82,47.44-.58,4.41-1.78,6.45-5.95,8.2-28.09,11.71-44.71,37.5-42,67.53.76,8.7-2,11.54-8.63,15.3-64.51,36.73-66.23,131.1-3.28,170.46,5.14,3.21,10.59,5.91,15.3,8.52-1.32,6.71-3.35,13-3.69,19.38-1.55,29.67,11.86,51.16,37.72,64.69,6.57,3.44,9.9,6.55,11.35,14.45,5,26.74,27.29,45.17,55.46,48.38,36.6,4.17,72.66-23.22,71.25-63.84-1.06-30.59-.25-61.25-.13-91.87,0-2,.74-5.29,1.94-5.72,10.5-3.67,21.2-6.84,32.39-10.32v7.13c0,35.22-.18,70.44.2,105.66a58.68,58.68,0,0,0,3.81,20.07c11.49,30.05,46,46,78.56,36.71,24.53-7,43.15-27.67,44.83-50.39.3-4.19,1.62-6.16,5.59-7.84,28.46-12,44.32-37.06,42.57-67.4-.37-6.49-2.47-12.88-3.76-19.17,38-18.38,60.61-47.66,61.24-90.61.67-47.86-24.32-79.1-69.84-98.25,10.21-9.42,20-17.76,29-26.83Q760.68,414.12,811.86,361.78Zm-70.56-84c13.82-10.54,29.8-11.43,45.43-3.62s24.29,21,25.48,38.71c.92,13.73-3.33,25.73-13,35.45-7.67,7.72-15.88,14.91-22.62,21.2q-32-30.43-66-62.84C721.31,296.51,730.47,286.06,741.3,277.8Zm-43.43,43.84Q730.3,352.86,763,384.39L741.74,404.5l-64.68-62C685,334.52,691.86,327.65,697.87,321.64Zm-154.19,73c15.1-19,46.57-23.44,64.58-8.29l-61.49,58.8C532.93,435.05,531,410.62,543.68,394.64ZM457.51,790.77c-11.92,16.67-28.64,22.63-48.24,19-17.6-3.24-30.47-13.32-35.08-31.33-3.35-13.05,0-25,9.06-35.08,1.54-1.7,3.33-3.16,4.86-4.86,3.36-3.71,3.58-9,.59-12.52-3.33-3.85-9-4.8-12.72-.79-5.87,6.39-10.87,13.62-16.09,20.61-1.1,1.47-1.58,3.42-2.62,5.79-15.65-6.62-26.66-17.35-30.64-33.78-1.64-6.81-.72-14.33-.36-21.49.24-4.91,1.91-8.73,8.2-9.59,2.33-.32,5-4.88,5.79-7.93,1-4-1.65-7.32-5.71-8.79-6.6-2.41-13.48-4.19-19.87-7.09-28.22-12.82-49.45-42.27-47.07-80.85,1.89-30.42,23.61-59.25,53.93-69.85,3.78-1.32,7.58-2.53,11.37-3.79,5.83-1.92,8.42-5.85,7.33-11.11-1-5-4.43-7.16-10.83-6.78-.94.06-1.87.09-2.75.14-7.05-22.23,9.82-46.51,30-53.87,3.4,5.64,6.3,11.69,10.45,16.73,1.88,2.29,6.36,3.76,9.38,3.39,2.46-.3,5.54-3.59,6.41-6.18.8-2.38-.24-6.15-1.81-8.39-10.07-14.52-11.47-29.56-1.9-44.47,10.26-16,26-22.27,44.44-20.37,17.78,1.81,31.45,10.71,38.09,27.94,6.53,17-.16,35.54-15.86,46.1-1.12.76-2.3,1.39-3.38,2.17-4.34,3.19-5.54,8.37-2.93,12.59a9.11,9.11,0,0,0,12.58,2.84c3.9-2.26,7.5-5,12-8.1v15.25c0,16.64.16,33.3-.16,49.94a13.7,13.7,0,0,1-3.34,8.39c-8.21,8.81-17,17.12-25.3,25.82a18.79,18.79,0,0,0-4.26,7.22c-10.69,35.19-21.2,70.41-31.77,105.63-.38,1.27-.73,2.56-1.13,3.83-1.31,4.07-1.81,8.59,2.13,10.88a15,15,0,0,0,10.52,1.55c15.95-4.45,31.72-9.57,47.55-14.47,1.63-.5,3.27-1,5.76-1.73,0,12.67,0,24.71-.07,36.75a7,7,0,0,1-1.42,4.18c-6.46,7.53-12.84,15.15-19.76,22.25-2.51,2.6-6.3,4.14-9.74,5.59-4.57,1.9-7.38,5.76-6.56,10.1,1,5.1,5.3,9,10.36,7.43,6-1.86,11.74-5.08,17.15-8.42,3.46-2.13,6.09-5.56,10.22-9.47C463,759.23,468,776.06,457.51,790.77Zm-37.34-123c8.39-27.73,16.51-54.51,24.22-80l56.93,54.67Zm311.45-69.35c-3.25,31.77-27.09,60-58.29,69a90.46,90.46,0,0,0-8.71,2.7,8.56,8.56,0,0,0-5.69,9c.29,4.22,2.36,7.8,6.76,8,5.37.26,6.4,3.69,7.4,7.65,5.86,23.25-6.48,46.31-29.07,55.94-6.77-8.65-12.7-17-19.44-24.57-4.32-4.86-9.74-4.51-13.56-.45-3.6,3.85-3.08,9.27,1.31,13.7,14.57,14.67,18.08,30.65,10.27,46.73s-27.53,26.59-45.72,24.42c-22.32-2.67-38-15.48-40.94-35.35-1.52-10.44-.26-21.3-.26-32.53,4.61,4,8.63,8.34,13.45,11.43a42.55,42.55,0,0,0,14.08,5.63c4.59.93,8-2,9.36-6.63,1.24-4.45-.35-8.84-4.45-10-11.4-3.25-17.43-12.55-24.88-20.31-5.94-6.2-8.56-13.13-8.18-22.1.76-17.77.1-35.59.37-53.38a12.65,12.65,0,0,1,3.21-7.9q62.63-64,125.49-127.73c2.1-2.14,3.79-2.8,6.93-1.91C711.22,521.4,735.82,557.25,731.62,598.46ZM519.37,632.59c-22.32-21.36-44.25-42.38-66.45-63.64L663,355.73l66.34,63.8Q623.22,527.22,519.37,632.59Z"/><path class="cls-2" d="M328.41,619.16c-4.4,3.57-10.44,2.63-14.46-2.8-7.7-10.41-9.27-22.56-7.56-34.85.9-6.55,3.71-13.07,6.82-19,1.54-2.94,5.69-4.51,9.48-7.3,3.12,2.59,6.84,4.22,7.76,6.84a12.23,12.23,0,0,1-1.3,9.8c-6.18,8.58-6.87,24.92-.55,33.2C332.85,610.63,332.77,615.6,328.41,619.16Z"/><path class="cls-2" d="M426.54,548.1c-.72,1.08-1.86,3.73-3.81,5.56-9.14,8.62-18.49,17-27.79,25.48-3.77,3.4-7.95,3.62-12,.76s-5.35-8.69-1.88-12.1c10.44-10.23,21.12-20.32,32.5-29.5C418.93,534,426.71,539.39,426.54,548.1Z"/><path class="cls-2" d="M614.79,649.86c-1.45,4.2,1.21,5.87,4.8,7.79,18.33,9.81,23.07,33.15,10,48.21-4.18,4.82-9.15,5.59-13.53,2.08-4.09-3.29-4.45-8.15-1-13.21,5-7.28,4.71-13.56-1.22-18.79-3.58-3.16-6.87-5.21-11.71-.63-5.66,5.34-13.17,7.49-21.14,7.27-5.75-.17-9.78-3.74-10-8.9-.17-4.92,3.89-9.16,9.58-9.38,5.28-.2,9.68-1.71,12.87-6.12,4.89-6.78,3.5-13.61-3-19.08-2.62-2.21-5.31-5.9-5.54-9.1-.49-6.78,7.47-10.72,13.74-7.11C609,628.76,614.54,637.59,614.79,649.86Z"/><path class="cls-2" d="M693.92,586.17c-.93,11.57-1.42,21.71-8.28,29.62-2.32,2.67-6.62,5.2-9.94,5.12-7.2-.18-10.19-8.47-5.91-14.55a29.58,29.58,0,0,0-.09-34.82c-3-4.11-2.83-8.29.64-11.94,3.33-3.49,8-4.2,11.32-1.09a39.33,39.33,0,0,1,9.4,13.07C693.14,576.54,693.23,582.31,693.92,586.17Z"/><path class="cls-2" d="M683.69,413.24C675.11,422,666.6,430.77,658,439.49q-72.48,73.53-145,147c-2.14,2.17-5.08,3.52-8.53,5.83-3.07-2.62-6.28-4.26-7.78-6.89-2.21-3.8-.77-7.67,2.39-10.86,12.24-12.36,24.41-24.81,36.62-37.19q66.45-67.42,132.94-134.76c1.84-1.85,3.94-3.91,6.32-4.68,4.13-1.36,8.06-.15,10.4,3.85S687.06,409.81,683.69,413.24Z"/></svg>